<mxfile host="app.diagrams.net" agent="Mozilla/5.0 (Windows NT 10.0; Win64; x64) AppleWebKit/537.36 (KHTML, like Gecko) Chrome/136.0.0.0 Safari/537.36" version="27.0.3">
  <diagram id="C5RBs43oDa-KdzZeNtuy" name="Flowchart Aplikasi">
    <mxGraphModel dx="1603" dy="865" grid="1" gridSize="10" guides="1" tooltips="1" connect="1" arrows="1" fold="1" page="1" pageScale="1" pageWidth="827" pageHeight="1169" background="light-dark(#FFFFFF,#FFFFFF)" math="0" shadow="1">
      <root>
        <mxCell id="WIyWlLk6GJQsqaUBKTNV-0" />
        <mxCell id="WIyWlLk6GJQsqaUBKTNV-1" parent="WIyWlLk6GJQsqaUBKTNV-0" />
        <mxCell id="Fa1tXY8H4S3iGTAmSH9r-135" value="&lt;font style=&quot;color: light-dark(rgb(0, 0, 0), rgb(0, 0, 0));&quot;&gt;Decision: simbol perbandingan suatu kondisi&lt;/font&gt;" style="shape=rhombus;html=1;fillColor=none;strokeColor=light-dark(#000000,#000000);" vertex="1" parent="WIyWlLk6GJQsqaUBKTNV-1">
          <mxGeometry x="40" y="20" width="300" height="100" as="geometry" />
        </mxCell>
        <mxCell id="Fa1tXY8H4S3iGTAmSH9r-137" value="&lt;font style=&quot;color: light-dark(rgb(0, 0, 0), rgb(0, 0, 0));&quot;&gt;Predefined process: simbol untuk pelaksanaan&lt;/font&gt;&lt;div&gt;&lt;font style=&quot;color: light-dark(rgb(0, 0, 0), rgb(0, 0, 0));&quot;&gt;&amp;nbsp;suatu bagian atau subprosedur&lt;/font&gt;&lt;/div&gt;" style="shape=process;html=1;fillColor=none;strokeColor=light-dark(#000000,#000000);" vertex="1" parent="WIyWlLk6GJQsqaUBKTNV-1">
          <mxGeometry x="40" y="160" width="300" height="80" as="geometry" />
        </mxCell>
        <mxCell id="Fa1tXY8H4S3iGTAmSH9r-138" value="&lt;font style=&quot;color: light-dark(rgb(0, 0, 0), rgb(0, 0, 0));&quot;&gt;Multiple documents: simbol untuk&lt;/font&gt;&lt;div&gt;&lt;font style=&quot;color: light-dark(rgb(0, 0, 0), rgb(0, 0, 0));&quot;&gt;&amp;nbsp;menyatakan&amp;nbsp;&lt;/font&gt;&lt;div&gt;&lt;font style=&quot;color: light-dark(rgb(0, 0, 0), rgb(0, 0, 0));&quot;&gt;input dari multifile dokumen&lt;/font&gt;&lt;/div&gt;&lt;/div&gt;" style="shape=multipleDocument;html=1;fillColor=none;strokeColor=light-dark(#000000,#000000);" vertex="1" parent="WIyWlLk6GJQsqaUBKTNV-1">
          <mxGeometry x="90" y="288.75" width="190" height="162.5" as="geometry" />
        </mxCell>
        <mxCell id="Fa1tXY8H4S3iGTAmSH9r-139" value="&lt;font style=&quot;color: light-dark(rgb(0, 0, 0), rgb(0, 0, 0));&quot;&gt;Data: simbol yang melambangkan i&lt;/font&gt;&lt;div&gt;&lt;font style=&quot;color: light-dark(rgb(0, 0, 0), rgb(0, 0, 0));&quot;&gt;nput output tampa bergantung peralatan&lt;/font&gt;&lt;/div&gt;" style="shape=parallelogram;html=1;fillColor=none;strokeColor=light-dark(#000000,#000000);" vertex="1" parent="WIyWlLk6GJQsqaUBKTNV-1">
          <mxGeometry x="420" y="40" width="300" height="80" as="geometry" />
        </mxCell>
        <mxCell id="Fa1tXY8H4S3iGTAmSH9r-140" value="&lt;font style=&quot;color: light-dark(rgb(0, 0, 0), rgb(0, 0, 0));&quot;&gt;Manual input: simbol untuk menyatakan&lt;/font&gt;&lt;div&gt;&lt;font style=&quot;color: light-dark(rgb(0, 0, 0), rgb(0, 0, 0));&quot;&gt;&amp;nbsp;input secara manual&lt;/font&gt;&lt;/div&gt;" style="shape=trapezoid;html=1;fillColor=none;strokeColor=light-dark(#000000,#000000);" vertex="1" parent="WIyWlLk6GJQsqaUBKTNV-1">
          <mxGeometry x="420" y="160" width="300" height="80" as="geometry" />
        </mxCell>
        <mxCell id="Fa1tXY8H4S3iGTAmSH9r-141" value="&lt;font style=&quot;color: light-dark(rgb(0, 0, 0), rgb(0, 0, 0)); font-size: 10px;&quot;&gt;Preparation: simbol yang menyatakan awal dan akhir program&lt;/font&gt;" style="shape=hexagon;html=1;fillColor=none;strokeColor=light-dark(#000000,#000000);" vertex="1" parent="WIyWlLk6GJQsqaUBKTNV-1">
          <mxGeometry x="420" y="270" width="300" height="80" as="geometry" />
        </mxCell>
        <mxCell id="Fa1tXY8H4S3iGTAmSH9r-142" value="&lt;span&gt;&lt;font style=&quot;color: light-dark(rgb(0, 0, 0), rgb(0, 0, 0));&quot;&gt;Document: simbol untuk menyatakan input dari dokumen&lt;/font&gt;&lt;/span&gt;" style="shape=document;html=1;fillColor=none;strokeColor=light-dark(#000000,#000000);" vertex="1" parent="WIyWlLk6GJQsqaUBKTNV-1">
          <mxGeometry x="413" y="380" width="300" height="80" as="geometry" />
        </mxCell>
        <mxCell id="Fa1tXY8H4S3iGTAmSH9r-143" value="&lt;font style=&quot;color: light-dark(rgb(0, 0, 0), rgb(0, 0, 0));&quot; face=&quot;Helvetica&quot;&gt;&lt;span style=&quot;text-wrap-mode: nowrap;&quot;&gt;simbol yang menyatakan awal atau akhir&lt;/span&gt;&lt;/font&gt;&lt;div&gt;&lt;font style=&quot;color: light-dark(rgb(0, 0, 0), rgb(0, 0, 0));&quot; face=&quot;Helvetica&quot;&gt;&lt;span style=&quot;text-wrap-mode: nowrap;&quot;&gt;suatu program&lt;/span&gt;&lt;/font&gt;&lt;/div&gt;" style="strokeWidth=2;html=1;shape=mxgraph.flowchart.start_1;whiteSpace=wrap;hachureGap=4;fontFamily=Architects Daughter;fontSource=https%3A%2F%2Ffonts.googleapis.com%2Fcss%3Ffamily%3DArchitects%2BDaughter;fillColor=none;strokeColor=light-dark(#000000,#000000);" vertex="1" parent="WIyWlLk6GJQsqaUBKTNV-1">
          <mxGeometry x="430" y="485" width="280" height="100" as="geometry" />
        </mxCell>
        <mxCell id="Fa1tXY8H4S3iGTAmSH9r-144" value="" style="shape=waypoint;sketch=0;size=6;pointerEvents=1;points=[];fillColor=none;resizable=0;rotatable=0;perimeter=centerPerimeter;snapToPoint=1;hachureGap=4;jiggle=2;curveFitting=1;fontFamily=Architects Daughter;fontSource=https%3A%2F%2Ffonts.googleapis.com%2Fcss%3Ffamily%3DArchitects%2BDaughter;" vertex="1" parent="WIyWlLk6GJQsqaUBKTNV-1">
          <mxGeometry x="500" y="570" width="20" height="20" as="geometry" />
        </mxCell>
        <mxCell id="Fa1tXY8H4S3iGTAmSH9r-148" value="&lt;div style=&quot;text-align: center;&quot;&gt;&lt;font face=&quot;Helvetica&quot; color=&quot;#ededed&quot;&gt;&lt;span style=&quot;text-wrap-mode: nowrap;&quot;&gt;TERMINATOR&lt;/span&gt;&lt;/font&gt;&lt;/div&gt;" style="text;whiteSpace=wrap;html=1;fontFamily=Architects Daughter;fontSource=https%3A%2F%2Ffonts.googleapis.com%2Fcss%3Ffamily%3DArchitects%2BDaughter;fillColor=none;" vertex="1" parent="WIyWlLk6GJQsqaUBKTNV-1">
          <mxGeometry x="520" y="460" width="270" height="40" as="geometry" />
        </mxCell>
        <mxCell id="Fa1tXY8H4S3iGTAmSH9r-155" value="&lt;div style=&quot;text-align: center;&quot;&gt;&lt;font face=&quot;Helvetica&quot; color=&quot;#ededed&quot;&gt;&lt;span style=&quot;text-wrap-mode: nowrap; background-color: light-dark(rgb(211, 213, 214), transparent);&quot;&gt;DOKUMEN&lt;/span&gt;&lt;/font&gt;&lt;/div&gt;" style="text;whiteSpace=wrap;html=1;fontFamily=Architects Daughter;fontSource=https%3A%2F%2Ffonts.googleapis.com%2Fcss%3Ffamily%3DArchitects%2BDaughter;" vertex="1" parent="WIyWlLk6GJQsqaUBKTNV-1">
          <mxGeometry x="540" y="350" width="270" height="40" as="geometry" />
        </mxCell>
        <mxCell id="Fa1tXY8H4S3iGTAmSH9r-157" value="&lt;div style=&quot;text-align: center;&quot;&gt;&lt;font face=&quot;Helvetica&quot; color=&quot;#ededed&quot;&gt;&lt;span style=&quot;text-wrap-mode: nowrap; background-color: light-dark(rgb(211, 213, 214), transparent);&quot;&gt;INPU/OUTPUTE&lt;/span&gt;&lt;/font&gt;&lt;/div&gt;" style="text;whiteSpace=wrap;html=1;fontFamily=Architects Daughter;fontSource=https%3A%2F%2Ffonts.googleapis.com%2Fcss%3Ffamily%3DArchitects%2BDaughter;" vertex="1" parent="WIyWlLk6GJQsqaUBKTNV-1">
          <mxGeometry x="540" y="10" width="270" height="40" as="geometry" />
        </mxCell>
        <mxCell id="Fa1tXY8H4S3iGTAmSH9r-158" value="&lt;div style=&quot;text-align: center;&quot;&gt;&lt;font style=&quot;color: light-dark(rgb(33, 33, 33), rgb(0, 0, 0));&quot; face=&quot;Helvetica&quot;&gt;&lt;span style=&quot;text-wrap-mode: nowrap; background-color: light-dark(rgb(53, 55, 56), transparent);&quot;&gt;PROSESS&lt;/span&gt;&lt;/font&gt;&lt;/div&gt;" style="text;whiteSpace=wrap;html=1;fontFamily=Architects Daughter;fontSource=https%3A%2F%2Ffonts.googleapis.com%2Fcss%3Ffamily%3DArchitects%2BDaughter;" vertex="1" parent="WIyWlLk6GJQsqaUBKTNV-1">
          <mxGeometry x="143" y="260" width="270" height="40" as="geometry" />
        </mxCell>
        <mxCell id="Fa1tXY8H4S3iGTAmSH9r-159" value="&lt;div style=&quot;text-align: center;&quot;&gt;&lt;font face=&quot;Helvetica&quot; color=&quot;#ededed&quot;&gt;&lt;span style=&quot;text-wrap-mode: nowrap; background-color: light-dark(rgb(211, 213, 214), transparent);&quot;&gt;PREDEFINE PROSES&lt;/span&gt;&lt;/font&gt;&lt;/div&gt;" style="text;whiteSpace=wrap;html=1;fontFamily=Architects Daughter;fontSource=https%3A%2F%2Ffonts.googleapis.com%2Fcss%3Ffamily%3DArchitects%2BDaughter;" vertex="1" parent="WIyWlLk6GJQsqaUBKTNV-1">
          <mxGeometry x="120" y="130" width="270" height="40" as="geometry" />
        </mxCell>
        <mxCell id="Fa1tXY8H4S3iGTAmSH9r-161" value="&lt;div style=&quot;text-align: center;&quot;&gt;&lt;font style=&quot;color: light-dark(rgb(237, 237, 237), rgb(0, 0, 0));&quot; face=&quot;Helvetica&quot;&gt;&lt;span style=&quot;text-wrap-mode: nowrap; background-color: light-dark(rgb(211, 213, 214), transparent);&quot;&gt;DECISION&lt;/span&gt;&lt;/font&gt;&lt;/div&gt;" style="text;whiteSpace=wrap;html=1;fontFamily=Architects Daughter;fontSource=https%3A%2F%2Ffonts.googleapis.com%2Fcss%3Ffamily%3DArchitects%2BDaughter;" vertex="1" parent="WIyWlLk6GJQsqaUBKTNV-1">
          <mxGeometry x="160" width="270" height="40" as="geometry" />
        </mxCell>
        <mxCell id="Fa1tXY8H4S3iGTAmSH9r-162" value="&lt;div style=&quot;text-align: center;&quot;&gt;&lt;font face=&quot;Helvetica&quot; color=&quot;#ededed&quot;&gt;&lt;span style=&quot;text-wrap-mode: nowrap; background-color: light-dark(rgb(211, 213, 214), transparent);&quot;&gt;PREPRATION&lt;/span&gt;&lt;/font&gt;&lt;/div&gt;" style="text;whiteSpace=wrap;html=1;fontFamily=Architects Daughter;fontSource=https%3A%2F%2Ffonts.googleapis.com%2Fcss%3Ffamily%3DArchitects%2BDaughter;" vertex="1" parent="WIyWlLk6GJQsqaUBKTNV-1">
          <mxGeometry x="530" y="248.75" width="270" height="40" as="geometry" />
        </mxCell>
        <mxCell id="Fa1tXY8H4S3iGTAmSH9r-163" value="&lt;div style=&quot;text-align: center;&quot;&gt;&lt;font style=&quot;color: light-dark(rgb(33, 33, 33), rgb(0, 0, 0));&quot; face=&quot;Helvetica&quot;&gt;&lt;span style=&quot;text-wrap-mode: nowrap; background-color: light-dark(rgb(53, 55, 56), transparent);&quot;&gt;MANUAL OPERATION&lt;/span&gt;&lt;/font&gt;&lt;/div&gt;" style="text;whiteSpace=wrap;html=1;fontFamily=Architects Daughter;fontSource=https%3A%2F%2Ffonts.googleapis.com%2Fcss%3Ffamily%3DArchitects%2BDaughter;" vertex="1" parent="WIyWlLk6GJQsqaUBKTNV-1">
          <mxGeometry x="500" y="130" width="270" height="40" as="geometry" />
        </mxCell>
      </root>
    </mxGraphModel>
  </diagram>
</mxfile>
